<?xml version="1.0" encoding="utf-8"?>
<!-- Generator: Adobe Illustrator 27.0.0, SVG Export Plug-In . SVG Version: 6.00 Build 0)  -->
<svg version="1.1" id="Layer_1" xmlns="http://www.w3.org/2000/svg" xmlns:xlink="http://www.w3.org/1999/xlink" x="0px" y="0px"
	 viewBox="0 0 190.5 29.2" style="enable-background:new 0 0 190.5 29.2;" xml:space="preserve">
<style type="text/css">
	.st0{fill:#FFFFFF;}
	.st1{clip-path:url(#SVGID_00000127728710916567589980000002724652137711933119_);}
	.st2{font-family:'Laro-Regular';}
	.st3{font-size:5.53px;}
	.st4{letter-spacing:1;}
</style>
<path class="st0" d="M14,27.9c-0.1,0-0.2,0-0.3-0.1c-0.2-0.1-0.3-0.4-0.1-0.7c2.4-3.2,6-8.2,6.2-8.7c0.3-0.6,0.5-1.2,0.4-1.6
	c0-0.2-0.1-0.3-0.3-0.4c-0.6-0.3-1.5-0.4-2.2,0.5c-1.4,1.7-1.6,2-3.3,2c-1,0-1.8-0.3-2.4-1c-0.7-0.7-1-1.8-1-3.3
	c0.1-2.2,1.2-4,2.9-4.6c1.3-0.5,3.4,0.3,4.4,1.3l0.2,0.2c0.4,0.4,0.9,0.9,1.2,0.9c0.2,0,0.4-0.1,0.6-0.4c0.2-0.3,0.3-0.7,0.1-1.3
	c-0.2-1-1.6-2.7-2.9-3.1c-1.2-0.4-3.3-1-5.7,0.5c-3.7,2.3-3.4,6.5-3.4,6.6c0,0.3-0.2,0.5-0.4,0.5c-0.3,0-0.5-0.2-0.5-0.4
	c0-0.2-0.4-4.9,3.8-7.5c2.8-1.8,5.2-1,6.4-0.6c1.5,0.5,3.3,2.4,3.6,3.8c0.2,1,0,1.7-0.3,2c-0.3,0.4-0.7,0.7-1.3,0.7
	c-0.7,0.1-1.3-0.5-1.9-1.1l-0.2-0.2c-0.8-0.9-2.5-1.4-3.4-1.1c-1.3,0.4-2.2,1.9-2.2,3.7c0,1.2,0.2,2.1,0.7,2.6
	c0.4,0.4,1,0.7,1.8,0.7c1.2,0,1.2,0,2.5-1.6c1.1-1.3,2.5-1.2,3.4-0.8c0.4,0.2,0.7,0.5,0.8,0.9c0.2,0.6,0,1.4-0.4,2.3
	c-0.4,0.7-5.7,8-6.3,8.8C14.2,27.8,14.1,27.9,14,27.9L14,27.9z"/>
<path class="st0" d="M4.4,27.9c-0.3,0-0.5-0.2-0.5-0.5V5.1c0-0.1,0-1.9,1.5-2.3c1.5-0.4,2.5,0.7,2.6,0.8c0.2,0.2,0.2,0.5,0,0.7
	c-0.2,0.2-0.5,0.2-0.7,0c0,0-0.7-0.7-1.6-0.5C4.8,3.9,4.8,5.1,4.8,5.1v22.3C4.8,27.7,4.6,27.9,4.4,27.9z"/>
<path class="st0" d="M4.8,14l-0.9-0.3c1.6-5,3.6-11.1,3.7-11.2C8,1.6,9,0.9,10.3,1.3c1.5,0.5,1.6,2,1.4,2.7l-1.9,6L8.9,9.8l1.9-6
	c0-0.1,0.3-1.2-0.8-1.5C9.1,1.9,8.7,2.4,8.4,2.9C8.3,3.2,6.2,9.7,4.8,14L4.8,14z"/>
<path class="st0" d="M3.9,14c-0.8-2.3-1.9-5.7-2-5.8C1.8,7.8,1.9,6.6,2.4,6C2.9,5.4,4,5.3,4.2,5.3l0.1,0.9C4,6.2,3.3,6.3,3.1,6.6
	C2.8,6.9,2.8,7.7,2.8,7.9c0.1,0.2,1.9,5.6,2,5.8L3.9,14L3.9,14z"/>
<g>
	<defs>
		<rect id="SVGID_1_" x="32.2" y="7" width="119.7" height="17.4"/>
	</defs>
	<clipPath id="SVGID_00000101087551910709483300000014317024141487539391_">
		<use xlink:href="#SVGID_1_"  style="overflow:visible;"/>
	</clipPath>
	<g style="clip-path:url(#SVGID_00000101087551910709483300000014317024141487539391_);">
		<path class="st0" d="M32.2,15.7c0-4.9,3.7-8.7,9-8.7c3.1,0,5.6,1.3,7.2,3.4l-2.7,2.3c-1-1.4-2.4-2.3-4.5-2.3
			c-3.2,0-5.5,2.3-5.5,5.3s2.3,5.3,5.5,5.3c2.1,0,3.6-0.9,4.5-2.3l2.7,2.3c-1.6,2.1-4.1,3.4-7.2,3.4C35.9,24.4,32.2,20.6,32.2,15.7z
			"/>
		<path class="st0" d="M55.9,24V7.3h3.5V24H55.9z"/>
		<path class="st0" d="M67.4,24V7.3H71l8.1,11v-11h3.5V24H79l-8.1-11v11H67.4L67.4,24z"/>
		<path class="st0" d="M89.8,15.7c0-4.9,3.7-8.7,9-8.7c3.1,0,5.6,1.3,7.2,3.4l-2.7,2.3c-1-1.4-2.4-2.3-4.5-2.3
			c-3.2,0-5.5,2.3-5.5,5.3s2.3,5.3,5.5,5.3c2.1,0,3.6-0.9,4.5-2.3L106,21c-1.6,2.1-4.1,3.4-7.2,3.4C93.5,24.4,89.8,20.6,89.8,15.7z"
			/>
		<path class="st0" d="M113.5,24V7.3h3.5v6.6h8.1V7.3h3.5V24H125v-6.8H117V24H113.5z"/>
		<path class="st0" d="M141.9,24v-6.9l-6.5-9.8h4.2l4.1,6.4l4-6.4h4.2l-6.5,9.8V24H141.9z"/>
	</g>
</g>
<text transform="matrix(1 0 0 1 161.1683 11.006)"><tspan x="0" y="0" class="st0 st2 st3 st4">BALI</tspan><tspan x="0" y="6.6" class="st0 st2 st3 st4">MOTOR</tspan><tspan x="0" y="13.3" class="st0 st2 st3 st4">RENTAL</tspan></text>
</svg>
