<?xml version="1.0" encoding="UTF-8"?><svg id="Layer_1" xmlns="http://www.w3.org/2000/svg" xmlns:xlink="http://www.w3.org/1999/xlink" viewBox="0 0 154.06 36.92"><defs><style>.cls-1{fill:#fff;}.cls-2{clip-path:url(#clippath);}.cls-3{fill:none;}</style><clipPath id="clippath"><rect class="cls-3" x="32.21" y="6.98" width="119.65" height="17.38"/></clipPath></defs><g><path class="cls-1" d="M15.85,33.39c-.1,0-.2-.03-.28-.1-.21-.15-.26-.46-.1-.67,2.41-3.3,6.08-8.38,6.33-8.87,.35-.66,.49-1.25,.37-1.61-.05-.16-.15-.29-.32-.37-.63-.32-1.54-.37-2.22,.48-1.39,1.73-1.67,2.07-3.37,2.06-1.02,0-1.88-.35-2.47-.97-.71-.74-1.05-1.86-1.02-3.33,.06-2.27,1.21-4.11,2.92-4.71,1.37-.47,3.5,.31,4.5,1.33l.18,.19c.44,.45,.89,.91,1.18,.88,.19-.03,.46-.11,.64-.36,.21-.3,.26-.75,.14-1.33-.2-1.02-1.68-2.72-2.96-3.13-1.28-.41-3.32-1.06-5.84,.52-3.8,2.37-3.45,6.59-3.45,6.77,.03,.26-.17,.5-.43,.52-.27,.02-.49-.17-.51-.43-.02-.2-.43-4.98,3.89-7.67,2.89-1.8,5.28-1.04,6.57-.63,1.56,.5,3.39,2.44,3.67,3.87,.21,1.06-.05,1.71-.3,2.06-.3,.41-.75,.68-1.28,.75-.76,.1-1.36-.51-1.99-1.16l-.18-.18c-.86-.87-2.6-1.41-3.51-1.1-1.34,.46-2.24,1.97-2.28,3.83-.03,1.2,.22,2.1,.75,2.64,.42,.44,1.03,.67,1.8,.68,1.22,.02,1.27-.02,2.58-1.65,1.09-1.36,2.52-1.25,3.44-.78,.39,.2,.67,.53,.79,.94,.2,.62,.05,1.43-.44,2.35-.37,.71-5.79,8.14-6.41,8.98-.1,.12-.24,.19-.38,.19v.02Z"/><path class="cls-1" d="M6.04,33.39c-.27,0-.48-.21-.48-.48V10.14c0-.07-.05-1.93,1.51-2.37,1.48-.42,2.56,.72,2.61,.77,.18,.19,.17,.5-.02,.68-.19,.18-.49,.17-.68-.02-.04-.04-.75-.76-1.66-.51-.84,.24-.82,1.38-.82,1.43v22.79c0,.27-.21,.48-.48,.48Z"/><path class="cls-1" d="M6.5,19.2l-.9-.3c1.67-5.15,3.68-11.31,3.76-11.47,.43-.86,1.38-1.62,2.78-1.18,1.54,.48,1.61,2,1.43,2.74l-1.92,6.17-.91-.29,1.91-6.14c.02-.1,.26-1.25-.79-1.58-.93-.29-1.41,.22-1.65,.7-.1,.28-2.28,6.94-3.71,11.35h0Z"/><path class="cls-1" d="M5.6,19.21c-.79-2.31-1.99-5.8-2.05-5.96-.14-.38-.04-1.56,.49-2.2,.53-.65,1.68-.74,1.81-.75l.06,.95c-.28,.02-.92,.14-1.13,.4-.29,.34-.37,1.11-.33,1.29,.08,.2,1.97,5.72,2.05,5.96l-.9,.31h0Z"/></g><g class="cls-2"><g><path class="cls-1" d="M32.21,15.67c0-4.94,3.7-8.7,9.04-8.7,3.08,0,5.55,1.27,7.19,3.4l-2.66,2.28c-.95-1.41-2.4-2.28-4.54-2.28-3.18,0-5.48,2.28-5.48,5.29s2.31,5.29,5.48,5.29c2.14,0,3.59-.86,4.54-2.25l2.66,2.25c-1.64,2.14-4.11,3.4-7.19,3.4-5.34-.01-9.04-3.77-9.04-8.7Z"/><path class="cls-1" d="M55.88,24.05V7.28h3.49V24.05h-3.49Z"/><path class="cls-1" d="M67.44,24.05V7.28h3.51l8.08,11.04V7.28h3.49V24.05h-3.49l-8.09-11.04v11.04h-3.5Z"/><path class="cls-1" d="M89.79,15.67c0-4.94,3.7-8.7,9.04-8.7,3.08,0,5.55,1.27,7.19,3.4l-2.66,2.28c-.95-1.41-2.4-2.28-4.54-2.28-3.18,0-5.48,2.28-5.48,5.29s2.31,5.29,5.48,5.29c2.14,0,3.59-.86,4.54-2.25l2.66,2.25c-1.64,2.14-4.11,3.4-7.19,3.4-5.34,0-9.04-3.76-9.04-8.7Z"/><path class="cls-1" d="M113.47,24.05V7.28h3.49v6.61h8.08V7.28h3.49V24.05h-3.49v-6.75h-8.08v6.75h-3.49Z"/><path class="cls-1" d="M141.89,24.05v-6.94l-6.48-9.82h4.16l4.08,6.37,4.04-6.37h4.16l-6.45,9.82v6.94h-3.51Z"/></g></g><g><path class="cls-1" d="M33.98,33.91v-5.22h2.21c1.1,0,1.63,.55,1.63,1.32,0,.45-.24,.84-.65,1.04,.67,.13,1.15,.68,1.15,1.35,0,.86-.68,1.51-1.67,1.51h-2.66Zm.66-3.01h1.5c.61,0,1.02-.37,1.02-.84s-.36-.81-1.02-.81h-1.5v1.66Zm0,2.46h1.96c.59,0,1.05-.43,1.05-.98s-.46-.98-1.05-.98h-1.96v1.96Z"/><path class="cls-1" d="M41.11,33.91l2-5.22h.75l2,5.22h-.72l-.59-1.54h-2.13l-.59,1.54h-.72Zm1.53-2.13h1.69l-.84-2.22-.84,2.22Z"/><path class="cls-1" d="M48.98,33.91v-5.22h.66v4.63h3.22v.6h-3.87Z"/><path class="cls-1" d="M56.06,33.91v-5.22h.66v5.22h-.66Z"/><path class="cls-1" d="M64.83,33.91v-5.22h.67l2.18,3.75,2.17-3.75h.68v5.22h-.66v-4.01l-1.9,3.24h-.6l-1.89-3.24v4.01h-.66Z"/><path class="cls-1" d="M73.71,31.3c0-1.51,1.18-2.7,2.76-2.7s2.76,1.19,2.76,2.7-1.18,2.7-2.76,2.7-2.76-1.19-2.76-2.7Zm4.85,0c0-1.16-.92-2.06-2.09-2.06s-2.09,.9-2.09,2.06,.92,2.06,2.09,2.06,2.09-.9,2.09-2.06Z"/><path class="cls-1" d="M83.66,33.91v-4.57h-1.75v-.66h4.17v.66h-1.75v4.57h-.67Z"/><path class="cls-1" d="M88.74,31.3c0-1.51,1.18-2.7,2.76-2.7s2.76,1.19,2.76,2.7-1.18,2.7-2.76,2.7-2.76-1.19-2.76-2.7Zm4.85,0c0-1.16-.92-2.06-2.09-2.06s-2.09,.9-2.09,2.06,.92,2.06,2.09,2.06,2.09-.9,2.09-2.06Z"/><path class="cls-1" d="M97.45,33.91v-5.22h2.45c1.09,0,1.72,.72,1.72,1.62,0,.72-.43,1.33-1.19,1.51l1.18,2.1h-.73l-1.14-1.99h-1.63v1.99h-.66Zm.66-2.6h1.75c.69,0,1.1-.43,1.1-1.01s-.42-1.02-1.1-1.02h-1.75v2.02Z"/><path class="cls-1" d="M109.73,33.91v-5.22h2.45c1.09,0,1.72,.72,1.72,1.62,0,.72-.43,1.33-1.19,1.51l1.18,2.1h-.73l-1.14-1.99h-1.63v1.99h-.66Zm.66-2.6h1.75c.69,0,1.1-.43,1.1-1.01s-.42-1.02-1.1-1.02h-1.75v2.02Z"/><path class="cls-1" d="M117.27,33.91v-5.22h3.87v.6h-3.22v1.71h2.37v.6h-2.37v1.72h3.22v.6h-3.87Z"/><path class="cls-1" d="M124.4,33.91v-5.22h.67l3.09,4.16v-4.16h.66v5.22h-.67l-3.1-4.16v4.16h-.66Z"/><path class="cls-1" d="M133.7,33.91v-4.57h-1.75v-.66h4.17v.66h-1.75v4.57h-.67Z"/><path class="cls-1" d="M138.48,33.91l2-5.22h.75l2,5.22h-.72l-.59-1.54h-2.13l-.59,1.54h-.72Zm1.53-2.13h1.69l-.84-2.22-.84,2.22Z"/><path class="cls-1" d="M146.35,33.91v-5.22h.66v4.63h3.22v.6h-3.87Z"/></g></svg>