<svg width="182" height="43" viewBox="0 0 182 43" fill="none" xmlns="http://www.w3.org/2000/svg">
<path d="M28.1007 34.7146C28.0075 34.7146 27.905 34.6866 27.8304 34.6211C27.6253 34.4715 27.5787 34.1724 27.7278 33.9667C30.0863 30.7318 33.6846 25.758 33.9269 25.2812C34.2718 24.6361 34.4023 24.0565 34.2905 23.7012C34.2439 23.5423 34.1413 23.4207 33.9735 23.3366C33.3583 23.0187 32.4634 22.972 31.8015 23.8041C30.4405 25.4963 30.1702 25.8328 28.5016 25.8235C27.5041 25.8141 26.6651 25.4776 26.0779 24.8699C25.3787 24.1406 25.0525 23.0468 25.0804 21.607C25.1364 19.3819 26.2643 17.5775 27.9423 16.9978C29.2846 16.5397 31.3727 17.3063 32.3515 18.2974L32.5286 18.4843C32.9574 18.9237 33.3956 19.3725 33.6846 19.3445C33.871 19.3164 34.132 19.2416 34.3091 18.9892C34.5142 18.6994 34.5608 18.2506 34.449 17.6896C34.2532 16.6893 32.8083 15.0251 31.5498 14.6231C30.3007 14.2211 28.2965 13.5853 25.8262 15.128C22.1067 17.4466 22.4423 21.5789 22.4516 21.7566C22.4796 22.009 22.2838 22.2427 22.0322 22.2614C21.7711 22.2801 21.5474 22.0931 21.5288 21.8407C21.5101 21.6444 21.1093 16.9604 25.3414 14.3333C28.1753 12.5663 30.5151 13.3142 31.7736 13.7162C33.3024 14.2024 35.0922 16.1096 35.3718 17.5027C35.5769 18.5404 35.3252 19.1762 35.0735 19.5221C34.7845 19.9241 34.3371 20.1859 33.8151 20.2607C33.0693 20.3542 32.482 19.7652 31.8668 19.1294L31.6897 18.9518C30.8507 18.101 29.1448 17.5681 28.2499 17.8766C26.9355 18.3254 26.0592 19.8026 26.0126 21.6257C25.9846 22.8037 26.227 23.6825 26.749 24.2154C27.1592 24.6455 27.7558 24.8699 28.5109 24.8792C29.7041 24.8979 29.7507 24.8605 31.0371 23.2618C32.0998 21.9342 33.5074 22.037 34.4023 22.4952C34.7845 22.6915 35.0549 23.0094 35.1761 23.4114C35.3718 24.0191 35.2227 24.8138 34.7473 25.7113C34.3837 26.4031 29.0795 33.6862 28.4736 34.5089C28.3804 34.6305 28.2406 34.6959 28.1007 34.6959V34.7146Z" fill="#FAAE2B"/>
<path d="M18.499 34.7147C18.238 34.7147 18.0329 34.509 18.0329 34.2472V11.9399C18.0329 11.8745 17.9863 10.0514 19.5151 9.62133C20.9693 9.20997 22.0227 10.3225 22.0693 10.3786C22.2464 10.5656 22.2371 10.8648 22.0506 11.0424C21.8642 11.2201 21.5752 11.2107 21.3888 11.0237C21.3515 10.9863 20.6523 10.2758 19.7667 10.5282C18.9464 10.7619 18.9651 11.8838 18.9651 11.9306V34.2472C18.9651 34.509 18.76 34.7147 18.499 34.7147V34.7147Z" fill="#FAAE2B"/>
<path d="M18.9466 20.8123L18.061 20.5224C19.6924 15.4832 21.6686 9.4436 21.7432 9.28466C22.1627 8.44323 23.0949 7.69529 24.4652 8.12536C25.9753 8.59282 26.0406 10.0887 25.8635 10.8086L23.9805 16.8482L23.0856 16.5677L24.9593 10.5562C24.9779 10.4627 25.211 9.33141 24.1855 9.01354C23.272 8.73306 22.8059 9.22857 22.5728 9.69603C22.4703 9.96716 20.3356 16.4929 18.9373 20.8123H18.9466Z" fill="#FAAE2B"/>
<path d="M18.061 20.8217C17.2873 18.5592 16.1127 15.1373 16.0568 14.9877C15.917 14.6138 16.0195 13.4638 16.5415 12.8281C17.0636 12.1923 18.1822 12.0988 18.3127 12.0895L18.3686 13.0244C18.0983 13.0431 17.4644 13.1646 17.2593 13.4171C16.9797 13.7536 16.8958 14.5016 16.9331 14.6792C17.0076 14.8756 18.8627 20.2794 18.9373 20.5131L18.0517 20.8123L18.061 20.8217Z" fill="#FAAE2B"/>
<g clip-path="url(#clip0_620_9407)">
<path d="M46.3457 22.4877C46.3457 17.5519 50.048 13.7925 55.386 13.7925C58.4671 13.7925 60.9395 15.0585 62.5752 17.1939L59.9125 19.47C58.9616 18.0634 57.5161 17.1939 55.3733 17.1939C52.1908 17.1939 49.8959 19.47 49.8959 22.4877C49.8959 25.5054 52.2035 27.7815 55.3733 27.7815C57.5161 27.7815 58.9616 26.9248 59.9125 25.531L62.5752 27.7815C60.9395 29.9169 58.4671 31.1829 55.386 31.1829C50.048 31.1701 46.3457 27.4107 46.3457 22.4877Z" fill="white"/>
<path d="M70.0178 30.8632V14.0994H73.5046V30.8632H70.0178Z" fill="white"/>
<path d="M81.5813 30.8632V14.0994H85.0935L93.1701 25.1346V14.0994H96.6569V30.8632H93.1701L85.0808 19.828V30.8632H81.594H81.5813Z" fill="white"/>
<path d="M103.935 22.4877C103.935 17.5519 107.637 13.7925 112.975 13.7925C116.056 13.7925 118.529 15.0585 120.164 17.1939L117.502 19.47C116.551 18.0634 115.105 17.1939 112.962 17.1939C109.78 17.1939 107.485 19.47 107.485 22.4877C107.485 25.5054 109.793 27.7815 112.962 27.7815C115.105 27.7815 116.551 26.9248 117.502 25.531L120.164 27.7815C118.529 29.9169 116.056 31.1829 112.975 31.1829C107.637 31.1829 103.935 27.4235 103.935 22.4877Z" fill="white"/>
<path d="M127.607 30.8632V14.0994H131.094V20.7103H139.171V14.0994H142.657V30.8632H139.171V24.1116H131.094V30.8632H127.607V30.8632Z" fill="white"/>
<path d="M156.034 30.8632V23.9198L149.555 14.0994H153.714L157.796 20.4674L161.841 14.0994H166L159.546 23.9198V30.8632H156.034Z" fill="white"/>
</g>
<defs>
<clipPath id="clip0_620_9407">
<rect width="119.654" height="17.3775" fill="white" transform="translate(46.3457 13.7925)"/>
</clipPath>
</defs>
</svg>
