<?xml version="1.0" encoding="utf-8"?>
<!-- Generator: Adobe Illustrator 27.0.0, SVG Export Plug-In . SVG Version: 6.00 Build 0)  -->
<svg version="1.1" id="Layer_1" xmlns="http://www.w3.org/2000/svg" xmlns:xlink="http://www.w3.org/1999/xlink" x="0px" y="0px"
	 viewBox="0 0 190.5 29.2" style="enable-background:new 0 0 190.5 29.2;" xml:space="preserve">
<style type="text/css">
	.st0{fill:#F9AD29;}
	.st1{clip-path:url(#SVGID_00000088825494265907771610000015413645783295057317_);}
	.st2{fill:#FFFFFF;}
</style>
<path class="st0" d="M14,27.9c-0.1,0-0.2,0-0.3-0.1c-0.2-0.1-0.3-0.4-0.1-0.7c2.4-3.2,6-8.2,6.2-8.7c0.3-0.6,0.5-1.2,0.4-1.6
	c0-0.2-0.1-0.3-0.3-0.4c-0.6-0.3-1.5-0.4-2.2,0.5c-1.4,1.7-1.6,2-3.3,2c-1,0-1.8-0.3-2.4-1c-0.7-0.7-1-1.8-1-3.3
	c0.1-2.2,1.2-4,2.9-4.6c1.3-0.5,3.4,0.3,4.4,1.3l0.2,0.2c0.4,0.4,0.9,0.9,1.2,0.9c0.2,0,0.4-0.1,0.6-0.4c0.2-0.3,0.3-0.7,0.1-1.3
	c-0.2-1-1.6-2.7-2.9-3.1c-1.2-0.4-3.3-1-5.7,0.5c-3.7,2.3-3.4,6.5-3.4,6.6c0,0.3-0.2,0.5-0.4,0.5c-0.3,0-0.5-0.2-0.5-0.4
	c0-0.2-0.4-4.9,3.8-7.5c2.8-1.8,5.2-1,6.4-0.6c1.5,0.5,3.3,2.4,3.6,3.8c0.2,1,0,1.7-0.3,2c-0.3,0.4-0.7,0.7-1.3,0.7
	c-0.7,0.1-1.3-0.5-1.9-1.1l-0.2-0.2c-0.8-0.9-2.5-1.4-3.4-1.1c-1.3,0.4-2.2,1.9-2.2,3.7c0,1.2,0.2,2.1,0.7,2.6
	c0.4,0.4,1,0.7,1.8,0.7c1.2,0,1.2,0,2.5-1.6c1.1-1.3,2.5-1.2,3.4-0.8c0.4,0.2,0.7,0.5,0.8,0.9c0.2,0.6,0,1.4-0.4,2.3
	c-0.4,0.7-5.7,8-6.3,8.8C14.2,27.8,14.1,27.9,14,27.9L14,27.9z"/>
<path class="st0" d="M4.4,27.9c-0.3,0-0.5-0.2-0.5-0.5V5.1c0-0.1,0-1.9,1.5-2.3c1.5-0.4,2.5,0.7,2.6,0.8c0.2,0.2,0.2,0.5,0,0.7
	c-0.2,0.2-0.5,0.2-0.7,0c0,0-0.7-0.7-1.6-0.5C4.8,3.9,4.8,5.1,4.8,5.1v22.3C4.8,27.7,4.6,27.9,4.4,27.9z"/>
<path class="st0" d="M4.8,14l-0.9-0.3c1.6-5,3.6-11.1,3.7-11.2C8,1.6,9,0.9,10.3,1.3c1.5,0.5,1.6,2,1.4,2.7l-1.9,6L8.9,9.8l1.9-6
	c0-0.1,0.3-1.2-0.8-1.5C9.1,1.9,8.7,2.4,8.4,2.9C8.3,3.2,6.2,9.7,4.8,14L4.8,14z"/>
<path class="st0" d="M3.9,14c-0.8-2.3-1.9-5.7-2-5.8C1.8,7.8,1.9,6.6,2.4,6C2.9,5.4,4,5.3,4.2,5.3l0.1,0.9C4,6.2,3.3,6.3,3.1,6.6
	C2.8,6.9,2.8,7.7,2.8,7.9c0.1,0.2,1.9,5.6,2,5.8L3.9,14L3.9,14z"/>
<g>
	<defs>
		<rect id="SVGID_1_" x="32.2" y="7" width="119.7" height="17.4"/>
	</defs>
	<clipPath id="SVGID_00000086661333491996866360000008654444535593990846_">
		<use xlink:href="#SVGID_1_"  style="overflow:visible;"/>
	</clipPath>
	<g style="clip-path:url(#SVGID_00000086661333491996866360000008654444535593990846_);">
		<path class="st2" d="M32.2,15.7c0-4.9,3.7-8.7,9-8.7c3.1,0,5.6,1.3,7.2,3.4l-2.7,2.3c-1-1.4-2.4-2.3-4.5-2.3
			c-3.2,0-5.5,2.3-5.5,5.3s2.3,5.3,5.5,5.3c2.1,0,3.6-0.9,4.5-2.3l2.7,2.3c-1.6,2.1-4.1,3.4-7.2,3.4C35.9,24.4,32.2,20.6,32.2,15.7z
			"/>
		<path class="st2" d="M55.9,24V7.3h3.5V24H55.9z"/>
		<path class="st2" d="M67.4,24V7.3H71l8.1,11v-11h3.5V24H79l-8.1-11v11H67.4L67.4,24z"/>
		<path class="st2" d="M89.8,15.7c0-4.9,3.7-8.7,9-8.7c3.1,0,5.6,1.3,7.2,3.4l-2.7,2.3c-1-1.4-2.4-2.3-4.5-2.3
			c-3.2,0-5.5,2.3-5.5,5.3s2.3,5.3,5.5,5.3c2.1,0,3.6-0.9,4.5-2.3L106,21c-1.6,2.1-4.1,3.4-7.2,3.4C93.5,24.4,89.8,20.6,89.8,15.7z"
			/>
		<path class="st2" d="M113.5,24V7.3h3.5v6.6h8.1V7.3h3.5V24H125v-6.8H117V24H113.5z"/>
		<path class="st2" d="M141.9,24v-6.9l-6.5-9.8h4.2l4.1,6.4l4-6.4h4.2l-6.5,9.8V24H141.9z"/>
	</g>
</g>
<g>
	<path class="st2" d="M161.6,11V7.1h1.6c0.8,0,1.2,0.4,1.2,1c0,0.3-0.2,0.6-0.5,0.8c0.5,0.1,0.9,0.5,0.9,1c0,0.6-0.5,1.1-1.2,1.1
		H161.6z M162.1,8.8h1.1c0.5,0,0.8-0.3,0.8-0.6c0-0.4-0.3-0.6-0.8-0.6h-1.1V8.8z M162.1,10.6h1.4c0.4,0,0.8-0.3,0.8-0.7
		c0-0.4-0.3-0.7-0.8-0.7h-1.4V10.6z"/>
	<path class="st2" d="M166.3,11l1.5-3.9h0.6l1.5,3.9h-0.5l-0.4-1.1h-1.6l-0.4,1.1H166.3z M167.5,9.4h1.2l-0.6-1.6L167.5,9.4z"/>
	<path class="st2" d="M171.6,11V7.1h0.5v3.4h2.4V11H171.6z"/>
	<path class="st2" d="M176.3,11V7.1h0.5V11H176.3z"/>
	<path class="st2" d="M161.6,17.6v-3.9h0.5l1.6,2.8l1.6-2.8h0.5v3.9h-0.5v-3l-1.4,2.4h-0.4l-1.4-2.4v3H161.6z"/>
	<path class="st2" d="M167.6,15.7c0-1.1,0.9-2,2-2s2,0.9,2,2c0,1.1-0.9,2-2,2S167.6,16.8,167.6,15.7z M171.2,15.7
		c0-0.9-0.7-1.5-1.5-1.5s-1.5,0.7-1.5,1.5c0,0.9,0.7,1.5,1.5,1.5S171.2,16.6,171.2,15.7z"/>
	<path class="st2" d="M174.4,17.6v-3.4h-1.3v-0.5h3.1v0.5h-1.3v3.4H174.4z"/>
	<path class="st2" d="M177.6,15.7c0-1.1,0.9-2,2-2s2,0.9,2,2c0,1.1-0.9,2-2,2S177.6,16.8,177.6,15.7z M181.2,15.7
		c0-0.9-0.7-1.5-1.5-1.5s-1.5,0.7-1.5,1.5c0,0.9,0.7,1.5,1.5,1.5S181.2,16.6,181.2,15.7z"/>
	<path class="st2" d="M183.5,17.6v-3.9h1.8c0.8,0,1.3,0.5,1.3,1.2c0,0.5-0.3,1-0.9,1.1l0.9,1.6h-0.5l-0.8-1.5H184v1.5H183.5z
		 M184,15.7h1.3c0.5,0,0.8-0.3,0.8-0.7c0-0.4-0.3-0.8-0.8-0.8H184V15.7z"/>
	<path class="st2" d="M161.6,24.3v-3.9h1.8c0.8,0,1.3,0.5,1.3,1.2c0,0.5-0.3,1-0.9,1.1l0.9,1.6h-0.5l-0.8-1.5h-1.2v1.5H161.6z
		 M162.1,22.4h1.3c0.5,0,0.8-0.3,0.8-0.7c0-0.4-0.3-0.8-0.8-0.8h-1.3V22.4z"/>
	<path class="st2" d="M166.6,24.3v-3.9h2.9v0.4h-2.4v1.3h1.8v0.4h-1.8v1.3h2.4v0.4H166.6z"/>
	<path class="st2" d="M171.3,24.3v-3.9h0.5l2.3,3.1v-3.1h0.5v3.9h-0.5l-2.3-3.1v3.1H171.3z"/>
	<path class="st2" d="M177.7,24.3v-3.4h-1.3v-0.5h3.1v0.5h-1.3v3.4H177.7z"/>
	<path class="st2" d="M180.7,24.3l1.5-3.9h0.6l1.5,3.9h-0.5l-0.4-1.1h-1.6l-0.4,1.1H180.7z M181.8,22.7h1.2l-0.6-1.6L181.8,22.7z"/>
	<path class="st2" d="M185.9,24.3v-3.9h0.5v3.4h2.4v0.4H185.9z"/>
</g>
</svg>
