<?xml version="1.0" encoding="UTF-8"?><svg id="Layer_1" xmlns="http://www.w3.org/2000/svg" xmlns:xlink="http://www.w3.org/1999/xlink" viewBox="0 0 190.47 29.24"><defs><style>.cls-1{fill:#fff;}.cls-2{clip-path:url(#clippath);}.cls-3{fill:none;}</style><clipPath id="clippath"><rect class="cls-3" x="32.21" y="6.98" width="119.65" height="17.38"/></clipPath></defs><path class="cls-1" d="M13.96,27.9c-.09,0-.2-.03-.27-.09-.21-.15-.25-.45-.1-.65,2.36-3.23,5.96-8.21,6.2-8.69,.34-.65,.48-1.22,.36-1.58-.05-.16-.15-.28-.32-.36-.62-.32-1.51-.36-2.17,.47-1.36,1.69-1.63,2.03-3.3,2.02-1,0-1.84-.35-2.42-.95-.7-.73-1.03-1.82-1-3.26,.06-2.23,1.18-4.03,2.86-4.61,1.34-.46,3.43,.31,4.41,1.3l.18,.19c.43,.44,.87,.89,1.16,.86,.19-.03,.45-.1,.62-.36,.21-.29,.25-.74,.14-1.3-.2-1-1.64-2.66-2.9-3.07-1.25-.4-3.25-1.04-5.72,.5-3.72,2.32-3.38,6.45-3.37,6.63,.03,.25-.17,.49-.42,.5-.26,.02-.48-.17-.5-.42-.02-.2-.42-4.88,3.81-7.51,2.83-1.77,5.17-1.02,6.43-.62,1.53,.49,3.32,2.39,3.6,3.79,.21,1.04-.05,1.67-.3,2.02-.29,.4-.74,.66-1.26,.74-.75,.09-1.33-.5-1.95-1.13l-.18-.18c-.84-.85-2.54-1.38-3.44-1.08-1.31,.45-2.19,1.93-2.24,3.75-.03,1.18,.21,2.06,.74,2.59,.41,.43,1.01,.65,1.76,.66,1.19,.02,1.24-.02,2.53-1.62,1.06-1.33,2.47-1.22,3.37-.77,.38,.2,.65,.51,.77,.92,.2,.61,.05,1.4-.43,2.3-.36,.69-5.67,7.97-6.27,8.8-.09,.12-.23,.19-.37,.19v.02Z"/><path class="cls-1" d="M4.36,27.9c-.26,0-.47-.21-.47-.47V5.12c0-.07-.05-1.89,1.48-2.32,1.45-.41,2.51,.7,2.55,.76,.18,.19,.17,.49-.02,.66-.19,.18-.48,.17-.66-.02-.04-.04-.74-.75-1.62-.5-.82,.23-.8,1.36-.8,1.4V27.43c0,.26-.21,.47-.47,.47Z"/><path class="cls-1" d="M4.81,14l-.89-.29c1.63-5.04,3.61-11.08,3.68-11.24,.42-.84,1.35-1.59,2.72-1.16,1.51,.47,1.58,1.96,1.4,2.68l-1.88,6.04-.89-.28,1.87-6.01c.02-.09,.25-1.22-.77-1.54-.91-.28-1.38,.22-1.61,.68-.1,.27-2.24,6.8-3.64,11.12h0Z"/><path class="cls-1" d="M3.92,14.01c-.77-2.26-1.95-5.68-2-5.83-.14-.37-.04-1.52,.48-2.16,.52-.64,1.64-.73,1.77-.74l.06,.93c-.27,.02-.9,.14-1.11,.39-.28,.34-.36,1.08-.33,1.26,.07,.2,1.93,5.6,2,5.83l-.89,.3h0Z"/><g class="cls-2"><g><path class="cls-1" d="M32.21,15.67c0-4.94,3.7-8.7,9.04-8.7,3.08,0,5.55,1.27,7.19,3.4l-2.66,2.28c-.95-1.41-2.4-2.28-4.54-2.28-3.18,0-5.48,2.28-5.48,5.29s2.31,5.29,5.48,5.29c2.14,0,3.59-.86,4.54-2.25l2.66,2.25c-1.64,2.14-4.11,3.4-7.19,3.4-5.34-.01-9.04-3.77-9.04-8.7Z"/><path class="cls-1" d="M55.88,24.05V7.28h3.49V24.05h-3.49Z"/><path class="cls-1" d="M67.44,24.05V7.28h3.51l8.08,11.04V7.28h3.49V24.05h-3.49l-8.09-11.04v11.04h-3.5Z"/><path class="cls-1" d="M89.79,15.67c0-4.94,3.7-8.7,9.04-8.7,3.08,0,5.55,1.27,7.19,3.4l-2.66,2.28c-.95-1.41-2.4-2.28-4.54-2.28-3.18,0-5.48,2.28-5.48,5.29s2.31,5.29,5.48,5.29c2.14,0,3.59-.86,4.54-2.25l2.66,2.25c-1.64,2.14-4.11,3.4-7.19,3.4-5.34,0-9.04-3.76-9.04-8.7Z"/><path class="cls-1" d="M113.47,24.05V7.28h3.49v6.61h8.08V7.28h3.49V24.05h-3.49v-6.75h-8.08v6.75h-3.49Z"/><path class="cls-1" d="M141.89,24.05v-6.94l-6.48-9.82h4.16l4.08,6.37,4.04-6.37h4.16l-6.45,9.82v6.94h-3.51Z"/></g></g><g><path class="cls-1" d="M161.59,11.01v-3.87h1.63c.81,0,1.2,.41,1.2,.98,0,.33-.18,.62-.48,.77,.5,.09,.85,.5,.85,1,0,.64-.5,1.12-1.24,1.12h-1.97Zm.49-2.23h1.11c.45,0,.76-.27,.76-.62s-.26-.6-.76-.6h-1.11v1.23Zm0,1.82h1.45c.44,0,.78-.31,.78-.72s-.34-.72-.78-.72h-1.45v1.45Z"/><path class="cls-1" d="M166.32,11.01l1.48-3.87h.55l1.48,3.87h-.54l-.44-1.14h-1.57l-.44,1.14h-.53Zm1.13-1.58h1.25l-.62-1.64-.62,1.64Z"/><path class="cls-1" d="M171.6,11.01v-3.87h.49v3.42h2.38v.44h-2.87Z"/><path class="cls-1" d="M176.29,11.01v-3.87h.49v3.87h-.49Z"/><path class="cls-1" d="M161.59,17.64v-3.87h.5l1.61,2.77,1.61-2.77h.5v3.87h-.49v-2.97l-1.4,2.4h-.45l-1.4-2.4v2.97h-.49Z"/><path class="cls-1" d="M167.62,15.71c0-1.12,.87-2,2.04-2s2.04,.88,2.04,2-.87,2-2.04,2-2.04-.88-2.04-2Zm3.59,0c0-.86-.68-1.52-1.55-1.52s-1.55,.67-1.55,1.52,.68,1.52,1.55,1.52,1.55-.67,1.55-1.52Z"/><path class="cls-1" d="M174.43,17.64v-3.38h-1.3v-.49h3.09v.49h-1.29v3.38h-.5Z"/><path class="cls-1" d="M177.64,15.71c0-1.12,.87-2,2.04-2s2.04,.88,2.04,2-.87,2-2.04,2-2.04-.88-2.04-2Zm3.59,0c0-.86-.68-1.52-1.55-1.52s-1.55,.67-1.55,1.52,.68,1.52,1.55,1.52,1.55-.67,1.55-1.52Z"/><path class="cls-1" d="M183.54,17.64v-3.87h1.82c.81,0,1.27,.54,1.27,1.2,0,.53-.32,.98-.88,1.12l.87,1.55h-.54l-.85-1.47h-1.21v1.47h-.49Zm.49-1.92h1.29c.51,0,.82-.32,.82-.75s-.31-.75-.82-.75h-1.29v1.5Z"/><path class="cls-1" d="M161.59,24.28v-3.87h1.82c.81,0,1.27,.54,1.27,1.2,0,.53-.32,.98-.88,1.12l.87,1.55h-.54l-.85-1.47h-1.21v1.47h-.49Zm.49-1.92h1.29c.51,0,.82-.32,.82-.75s-.31-.75-.82-.75h-1.29v1.5Z"/><path class="cls-1" d="M166.61,24.28v-3.87h2.87v.44h-2.38v1.26h1.76v.45h-1.76v1.27h2.38v.44h-2.87Z"/><path class="cls-1" d="M171.34,24.28v-3.87h.5l2.29,3.08v-3.08h.49v3.87h-.5l-2.29-3.08v3.08h-.49Z"/><path class="cls-1" d="M177.69,24.28v-3.38h-1.3v-.49h3.09v.49h-1.29v3.38h-.5Z"/><path class="cls-1" d="M180.67,24.28l1.48-3.87h.55l1.48,3.87h-.54l-.44-1.14h-1.57l-.44,1.14h-.53Zm1.13-1.58h1.25l-.62-1.64-.62,1.64Z"/><path class="cls-1" d="M185.95,24.28v-3.87h.49v3.42h2.38v.44h-2.87Z"/></g></svg>